# xmcd
#
# Track frame offsets:
# 150
# 13980
# 30222
# 43790
# 65770
# 80677
# 81357
# 103897
# 121290
# 123447
# 141352
# 161690
# 184692
# 200545
# 224810
# 225647
#
# Disc length: 3273 seconds
#
#
# Revision: 6
# Processed by: cddbd v1.5.1PL0 Copyright (c) Steve Scherf et al.
# Submitted via: FreeRIP 2.942 
#
DISCID=ee0cc710
DTITLE=Stacie Orrico - Genuine
DYEAR=2000
DGENRE=Comtemporary Christian
TTITLE0=Ride
TTITLE1=Don't Look At Me
TTITLE2=0.0 Baby
TTITLE3=Without Love
TTITLE4=Stay True
TTITLE5=Kum-ba-ya - INTERLUDE
TTITLE6=Genuine
TTITLE7=With A Little Faith
TTITLE8=My Name - INTERLUDE
TTITLE9=So Pray
TTITLE10=Holdin' On
TTITLE11=Restore My Soul
TTITLE12=Confidant
TTITLE13=Everything
TTITLE14=Replay - INTERLUDE
TTITLE15=Dear Friend
EXTD=YEAR: 2000
EXTT0=Michael-Anthony Taylor
EXTT1=Mark Heimermann - Stacie Orrico
EXTT2=Dan Needham - Michael-Anthony Taylor - Scott Faircloth
EXTT3=Eddie DeGarmo - Tedd Tjornhom
EXTT4=Mark Heimermann - Charity
EXTT5=Traditional
EXTT6=Stacie Orrico - B. Huston - Tedd Tjornhom
EXTT7=Lisa Kimmey - Michael Quinlan - David Wyatt
EXTT8=Stacie Orrico
EXTT9=Michael-Anthony Taylor
EXTT10=Bob Farrell - Michael Quinlan
EXTT11=Ken Harrell
EXTT12=Charity - Mark Heimermann
EXTT13=Michael-Anthony Taylor
EXTT14=
EXTT15=Stacie Orrico
PLAYORDER=
